<svg width="40" height="40" xmlns="http://www.w3.org/2000/svg" xmlns:xlink="http://www.w3.org/1999/xlink">
 <!-- Created with Method Draw - http://github.com/duopixel/Method-Draw/ -->

 <g>
  <title>background</title>
  <rect fill="none" id="canvas_background" height="42" width="42" y="-1" x="-1"/>
  <g display="none" overflow="visible" y="0" x="0" height="100%" width="100%" id="canvasGrid">
   <rect fill="url(#gridpattern)" stroke-width="0" y="1" x="1" height="600" width="800"/>
  </g>
 </g>
 <g>
  <title>Layer 1</title>
  <defs>
   <linearGradient y2="0.70602" x2="1.02451" y1="0.45671" x1="0.38688" id="svg_14">
    <stop stop-color="#767676" offset="0"/>
    <stop offset="1"/>
   </linearGradient>
   <linearGradient y2="0.80706" x2="0.93487" y1="0.17866" x1="0.11553" id="svg_13">
    <stop stop-color="#0079b9" offset="0"/>
    <stop offset="1"/>
   </linearGradient>
   <linearGradient xlink:href="#svg_13" gradientTransform="matrix(60.003, 42.015, 34.184, -48.82, 10343.005, -10469.084)" y2="-243.455" x2="-33.224" y1="-243.423" x1="-33.282" id="svg_12"/>
   <linearGradient y2="0.5" x2="0.9994" y1="0.5" x1="0" id="svg_11">
    <stop stop-color="#595959" offset="0"/>
    <stop stop-color="#6e6e6e" offset="0.087"/>
    <stop stop-color="#8c8c8c" offset="0.242"/>
    <stop stop-color="#a4a4a4" offset="0.405"/>
    <stop stop-color="#b5b5b5" offset="0.577"/>
    <stop stop-color="#bfbfbf" offset="0.765"/>
    <stop stop-color="#c2c2c2" offset="1"/>
   </linearGradient>
   <linearGradient xlink:href="#svg_11" y2="26.171" x2="19.946" y1="26.171" x1="18.291" id="svg_10"/>
   <linearGradient xlink:href="#svg_11" y2="26.171" x2="26.096" y1="26.171" x1="24.44" id="svg_9"/>
  </defs>
  <g stroke="null" id="svg_40">
   <polygon stroke="null" id="svg_16" fill="#1c0a42" points="26.117708206176758,22.672552421689034 35.894256591796875,29.324877098202705 28.135770797729492,33.82462723553181 18.353517532348633,27.248407676815987 26.117708206176758,22.672552421689034 "/>
   <path stroke="null" id="svg_17" d="m28.13007,34.00903l-0.07844,-0.05268l-9.99048,-6.71671l8.06227,-4.75145l10.06322,6.84841l-8.05656,4.67243zm-9.48418,-6.75037l9.49559,6.38307l7.46041,-4.32709l-9.49131,-6.45478l-7.46469,4.39879z"/>
   <polygon stroke="null" id="svg_18" fill="url(#svg_14)" points="34.81178283691406,13.946680381894112 39.11459732055664,16.409471824765205 35.765899658203125,18.59862358868122 31.69127082824707,15.904623344540596 34.81178283691406,13.946680381894112 "/>
   <path stroke="null" id="svg_19" d="m35.76448,18.78448l-4.3613,-2.88277l3.40432,-2.13647l4.60375,2.63401l-3.64677,2.38524zm-3.78512,-2.87692l3.78654,2.50377l3.0492,-1.99014l-3.99334,-2.29012l-2.8424,1.77649z"/>
   <polygon stroke="null" id="svg_20" fill="#ffbd3f" points="17.83580780029297,22.57743676006794 27.613780975341797,29.23122628033161 19.855295181274414,33.730984047055244 10.073044776916504,27.154753044247627 17.83580780029297,22.57743676006794 "/>
   <path stroke="null" id="svg_21" d="m19.84959,33.91392l-0.07844,-0.05268l-9.99048,-6.71525l8.05799,-4.75292l10.06322,6.84841l-8.05228,4.67243zm-9.48418,-6.75037l9.49559,6.37868l7.46041,-4.32709l-9.48989,-6.4577l-7.46612,4.40611z"/>
   <polygon stroke="null" id="svg_22" fill="#a11f40" points="8.554145812988281,22.810106590390205 18.48615264892578,29.248785331845284 10.817513465881348,33.84072144329548 0.32216331362724304,27.028909996151924 8.554145812988281,22.810106590390205 "/>
   <path stroke="null" id="svg_23" d="m10.81466,34.02367l-10.80341,-7.01084l8.55716,-4.39001l10.21724,6.62452l-7.97099,4.77633zm-10.18159,-6.97865l10.18872,6.61135l7.37056,-4.41342l-9.64677,-6.25284l-7.91252,4.05491z"/>
   <polygon stroke="null" id="svg_24" fill="url(#svg_13)" points="0.16956119239330292,27.28060372173786 10.626404762268066,33.85682709515095 10.626404762268066,39.04872544109821 0.16956119239330292,32.125711753964424 0.16956119239330292,27.28060372173786 "/>
   <path stroke="null" id="svg_25" d="m10.77901,39.33704l-10.76775,-7.12498l0,-5.2124l10.76775,6.76939l0,5.56799zm-10.45684,-7.2962l10.15164,6.71964l0,-4.81584l-10.15164,-6.38307l0,4.47927z"/>
   <polygon stroke="null" id="svg_26" fill="url(#svg_12)" points="31.48874855041504,16.045103386044502 35.67890167236328,18.794710472226143 35.67890167236328,28.904905632138252 31.48874855041504,26.147978141903877 31.48874855041504,16.045103386044502 "/>
   <path stroke="null" id="svg_27" d="m35.75592,29.04832l-4.34276,-2.8579l0,-10.28872l4.34276,2.84912l0,10.2975zm-4.19015,-2.94423l4.03755,2.65596l0,-9.92288l-4.03755,-2.64864l0,9.91557z"/>
   <polygon stroke="null" id="svg_28" fill="#fff" points="35.87856674194336,29.482923820614815 35.87856674194336,18.75374062359333 39.25151443481445,16.67726357281208 39.25151443481445,39.17457230389118 37.5643310546875,39.17457230389118 10.915921211242676,39.17457230389118 10.915921211242676,33.98267014324665 18.674413681030273,29.482923820614815 19.67131805419922,33.98267014324665 19.687007904052734,33.98267014324665 27.782075881958008,29.482923820614815 28.379655838012695,33.98267014324665 28.456663131713867,33.98267014324665 35.87856674194336,29.482923820614815 "/>
   <path stroke="null" id="svg_29" d="m39.40412,39.33119l-28.6408,0l0,-5.44068l8.0152,-4.64902l0.99833,4.51147l8.1293,-4.51732l0.60185,4.53634l7.21796,-4.37684l0,-10.73065l3.67958,-2.26524l-0.00143,22.93194zm-28.3356,-0.31462l28.03039,0l0,-22.06272l-3.06774,1.8877l0,10.72918l-0.07559,0.04536l-7.45756,4.52171l-0.24816,0l-0.58617,-4.4105l-7.93534,4.4105l-0.17827,0l-0.97837,-4.41635l-7.50177,4.3505l-0.00143,4.94461z"/>
   <rect stroke="null" transform="matrix(1.4261926655250072,0,0,1.4633363512549475,7.991888228523466,33.004734663871346) " id="svg_30" fill="url(#svg_11)" ry="0.215" rx="0.215" height="1.656" width="1.656" y="0.50731" x="4.76024"/>
   <path stroke="null" id="svg_31" d="m16.84033,36.32257l-1.75422,0a0.45923,0.47119 0 0 1 -0.45923,-0.47119l0,-1.78966a0.45923,0.47119 0 0 1 0.45923,-0.47119l1.75422,0a0.45923,0.47119 0 0 1 0.45923,0.47119l0,1.79405a0.45923,0.47119 0 0 1 -0.45923,0.4668zm-1.75422,-2.41889a0.15403,0.15804 0 0 0 -0.1526,0.15658l0,1.79405a0.15403,0.15804 0 0 0 0.1526,0.15658l1.75422,0a0.15403,0.15804 0 0 0 0.1526,-0.15658l0,-1.79259a0.15403,0.15804 0 0 0 -0.1526,-0.15658l-1.75422,-0.00146z"/>
   <rect stroke="null" transform="matrix(1.4261926655250072,0,0,1.4633363512549475,7.991888228523466,33.004734663871346) " id="svg_32" fill="url(#svg_10)" ry="0.215" rx="0.215" height="1.656" width="1.656" y="0.41031" x="10.69524"/>
   <path stroke="null" id="svg_33" d="m25.3005,36.18501l-1.74994,0a0.45923,0.47119 0 0 1 -0.45923,-0.47119l0,-1.79405a0.45923,0.47119 0 0 1 0.45923,-0.47119l1.74851,0a0.45923,0.47119 0 0 1 0.45923,0.47119l0,1.79405a0.45923,0.47119 0 0 1 -0.45781,0.47119zm-1.74851,-2.42328a0.15403,0.15804 0 0 0 -0.1526,0.15658l0,1.79405a0.15403,0.15804 0 0 0 0.1526,0.15658l1.74851,0a0.15403,0.15804 0 0 0 0.1526,-0.15658l0,-1.79259a0.15403,0.15804 0 0 0 -0.1526,-0.15658l-1.74851,-0.00146z"/>
   <rect stroke="null" transform="matrix(1.4261926655250072,0,0,1.4633363512549475,7.991888228523466,33.004734663871346) " id="svg_34" fill="url(#svg_9)" ry="0.215" rx="0.215" height="1.656" width="1.656" y="0.41031" x="16.84424"/>
   <path stroke="null" id="svg_35" d="m34.07016,36.18501l-1.74851,0a0.45923,0.47119 0 0 1 -0.45923,-0.47119l0,-1.79405a0.45923,0.47119 0 0 1 0.45923,-0.47119l1.74851,0a0.45923,0.47119 0 0 1 0.45923,0.47119l0,1.79405a0.45923,0.47119 0 0 1 -0.45923,0.47119zm-1.74851,-2.42328a0.15403,0.15804 0 0 0 -0.1526,0.15658l0,1.79405a0.15403,0.15804 0 0 0 0.1526,0.15658l1.74851,0a0.15403,0.15804 0 0 0 0.1526,-0.15658l0,-1.79259a0.15403,0.15804 0 0 0 -0.1526,-0.15658l-1.74851,-0.00146z"/>
   <path stroke="null" id="svg_36" fill="#ea2d2e" d="m35.9727,12.95309c-0.07416,0.10097 -0.59472,-0.38339 -0.9313,-0.76971a6.28666,6.45039 0 0 1 -0.73592,-1.06824a3.7081,3.80467 0 0 1 -0.49346,-1.13262a3.36296,3.45055 0 0 1 -0.07416,-0.998a4.2201,4.33001 0 0 1 0.18398,-1.09604a4.4811,4.5978 0 0 1 1.12241,-1.76625a22.15162,22.72854 0 0 0 1.82981,-2.04867a4.367,4.48074 0 0 0 0.68315,-1.35651a5.67482,5.82262 0 0 0 0.21536,-1.25115c0.0271,-0.53265 -0.03565,-0.86776 0.0328,-0.89703s0.30663,0.40095 0.40932,0.82532a4.51675,4.63439 0 0 1 -0.6532,3.07301a9.84073,10.09702 0 0 1 -1.56025,2.11891a3.99334,4.09734 0 0 0 -1.21084,1.80576a3.51699,3.60859 0 0 0 -0.12265,1.00531a4.94176,5.07046 0 0 0 0.67887,2.25646c0.41074,0.83703 0.68457,1.21896 0.6261,1.29944z"/>
   <path stroke="null" id="svg_37" d="m35.94133,13.00577c-0.17685,0 -0.70169,-0.53412 -0.92845,-0.79605a6.38649,6.55282 0 0 1 -0.74162,-1.07409a3.74803,3.84565 0 0 1 -0.49346,-1.14287a3.38721,3.47542 0 0 1 -0.07559,-1.0097a4.2472,4.35782 0 0 1 0.18541,-1.10628a4.57523,4.69438 0 0 1 1.13097,-1.77942c0.4193,-0.48436 0.7131,-0.77264 0.93986,-1.00385a6.26526,6.42844 0 0 0 0.88709,-1.04043a4.35274,4.4661 0 0 0 0.67887,-1.34481a5.63489,5.78164 0 0 0 0.21393,-1.24237c0.01141,-0.23267 0,-0.43022 0,-0.57509c0,-0.23267 -0.00856,-0.32925 0.0542,-0.35559a0.07131,0.07317 0 0 1 0.06133,0a1.74851,1.79405 0 0 1 0.39933,0.84727a4.51675,4.63439 0 0 1 -0.65605,3.10374a9.88066,10.13799 0 0 1 -1.56881,2.12623c-0.07844,0.0878 -0.15546,0.16975 -0.23104,0.25023a3.28024,3.36567 0 0 0 -0.97124,1.53943a3.5227,3.61444 0 0 0 -0.11695,0.98483a4.93177,5.06022 0 0 0 0.67459,2.2389c0.16259,0.33803 0.30663,0.60728 0.41217,0.80337c0.18398,0.34388 0.25386,0.47266 0.20252,0.53997l0,0a0.07274,0.07463 0 0 1 -0.05705,0.02927l0,0.00732zm1.88115,-12.38861a1.2308,1.26286 0 0 0 0,0.27803c0,0.14633 0.00998,0.34535 0,0.58533a5.73472,5.88408 0 0 1 -0.21678,1.25993a4.42975,4.54512 0 0 1 -0.68885,1.36676a6.32802,6.49282 0 0 1 -0.89708,1.05214c-0.23104,0.23121 -0.51913,0.51802 -0.93701,0.99946a4.51818,4.63585 0 0 0 -1.11528,1.756a4.18302,4.29197 0 0 0 -0.18255,1.08726a3.3159,3.40226 0 0 0 0.07416,0.98775a3.69384,3.79004 0 0 0 0.48633,1.12238a6.30662,6.47087 0 0 0 0.73164,1.06092a2.9023,2.97789 0 0 0 0.8714,0.76971a1.68719,1.73113 0 0 0 -0.20965,-0.45363c-0.10554,-0.19609 -0.24958,-0.46534 -0.4136,-0.8063a4.99167,5.12168 0 0 1 -0.68885,-2.28573a3.60827,3.70224 0 0 1 0.1198,-1.00678a3.38721,3.47542 0 0 1 0.98978,-1.57309c0.07416,-0.08048 0.15118,-0.16243 0.22962,-0.25023a9.81078,10.06629 0 0 0 1.55455,-2.11013a4.44829,4.56415 0 0 0 0.65034,-3.04813a1.82695,1.87453 0 0 0 -0.35797,-0.79166z"/>
   <path stroke="null" id="svg_38" fill="#ea2d2e" d="m39.90472,5.42715c-0.0271,-0.12877 -0.61612,-0.05853 -1.09246,0.10682a3.7081,3.80467 0 0 0 -1.51034,1.05653a3.99334,4.09734 0 0 0 -1.30639,2.71449a4.23864,4.34904 0 0 0 0.36796,1.55114c0.31519,0.83703 0.64892,1.13116 0.63323,1.79259c-0.00998,0.439 -0.16259,0.70825 -0.06846,0.80337s0.44782,-0.14633 0.6589,-0.45802a2.56715,2.63401 0 0 0 0.36938,-1.49553c-0.0656,-1.19262 -0.85572,-1.48529 -0.86713,-2.63401a2.64987,2.71888 0 0 1 0.18398,-0.98922c0.6318,-1.83063 2.68267,-2.20671 2.63133,-2.44816z"/>
   <path stroke="null" id="svg_39" d="m36.99813,13.5194a0.13406,0.13755 0 0 1 -0.09841,-0.03805c-0.0656,-0.06731 -0.04279,-0.17853 -0.00713,-0.34681a2.4502,2.51401 0 0 0 0.06418,-0.48436a1.95959,2.01062 0 0 0 -0.30521,-1.0536a7.13096,7.31668 0 0 1 -0.32517,-0.72435a4.25005,4.36074 0 0 1 -0.36938,-1.56577a4.0076,4.11198 0 0 1 1.31638,-2.74229a3.76515,3.86321 0 0 1 1.52603,-1.06677a2.11362,2.16866 0 0 1 1.09246,-0.14633a0.0927,0.09512 0 0 1 0.05277,0.06731l0,0c0.02139,0.10243 -0.13121,0.17706 -0.43641,0.32779a3.89351,3.99491 0 0 0 -2.19919,2.14086a2.60565,2.67352 0 0 0 -0.18113,0.97605a2.34609,2.40719 0 0 0 0.41502,1.29505a2.69408,2.76424 0 0 1 0.4521,1.33749a2.58711,2.65449 0 0 1 -0.37651,1.52041a1.15379,1.18384 0 0 1 -0.60043,0.50046l-0.01997,0.00293zm2.69408,-8.12005a3.01925,3.09788 0 0 0 -0.86713,0.17121a3.69099,3.78711 0 0 0 -1.49465,1.04629a3.942,4.04466 0 0 0 -1.29641,2.68815a4.18588,4.29489 0 0 0 0.36511,1.5365a7.06678,7.25083 0 0 0 0.32089,0.71703a2.04373,2.09696 0 0 1 0.31376,1.09019a2.51723,2.58279 0 0 1 -0.06703,0.499c-0.0271,0.13316 -0.04992,0.23852 -0.01284,0.27511a0.0656,0.06731 0 0 0 0.0542,0.01463a1.09674,1.12531 0 0 0 0.54481,-0.46827a2.55716,2.62376 0 0 0 0.36225,-1.47065a2.6299,2.69839 0 0 0 -0.44212,-1.30237a2.44022,2.50377 0 0 1 -0.42786,-1.3331a2.67696,2.74668 0 0 1 0.18541,-1.00385a3.95911,4.06222 0 0 1 2.2434,-2.1833c0.1797,-0.08926 0.40361,-0.19901 0.39506,-0.23999l-0.01141,-0.01024a0.37651,0.38632 0 0 0 -0.16544,-0.02634z"/>
  </g>
  <g stroke="null" id="svg_48">
   <g stroke="null" transform="matrix(0.0496641824866995,0,0,0.0496641824866995,-614.577899150434,-470.1865931654043) " id="svg_44">
    <g stroke="null" id="svg_45">
     <path stroke="null" id="svg_46" d="m12598.01537,9632.85069c-24.362,0 -43.503,19.141 -43.503,43.503s19.141,43.503 43.503,43.503s43.503,-19.141 43.503,-43.503s-19.141,-43.503 -43.503,-43.503zm0,69.605c-13.921,0 -26.102,-12.181 -26.102,-26.102c0,-13.921 12.181,-26.102 26.102,-26.102c13.921,0 26.102,12.181 26.102,26.102c0,13.921 -12.181,26.102 -26.102,26.102z"/>
     <path stroke="null" id="svg_47" d="m12725.04437,9643.29169l-15.661,0c-1.74,0 -3.48,0 -3.48,-1.74c-1.74,-5.22 -3.48,-12.181 -6.96,-17.401c0,0 -1.74,-1.74 0,-3.48l12.181,-12.181c8.701,-8.701 8.701,-20.882 0,-29.582l-17.401,-17.401c-8.701,-6.96 -22.621,-6.96 -29.582,0l-12.181,12.181c0,0 -1.74,0 -3.48,0c-5.22,-1.74 -12.181,-5.22 -17.401,-6.96c0,-1.74 -1.74,-1.74 -1.74,-3.48l0,-15.663c-0.003,-12.181 -10.443,-20.882 -20.884,-20.882l-22.622,0c-12.181,0 -20.882,10.441 -20.882,20.882l0,15.661c0,1.74 0,3.48 -1.74,3.48c-5.22,1.74 -12.181,3.48 -17.401,6.96c-1.74,1.74 -1.74,1.74 -3.48,0l-12.181,-12.181c-8.701,-6.96 -22.621,-6.96 -29.582,0l-17.402,17.402c-8.701,8.701 -8.701,20.882 0,29.582l12.181,12.181c0,1.74 0,1.74 0,3.48c-1.74,5.22 -5.22,10.441 -6.96,17.401c-1.74,0 -1.74,1.74 -3.48,1.74l-15.661,0c-12.181,0.001 -20.882,10.442 -20.882,20.882l0,22.621c0,12.181 10.441,20.882 20.882,20.882l15.661,0c1.74,0 3.48,0 3.48,1.74c1.74,5.22 3.48,12.181 6.96,17.401c0,0 1.74,1.74 0,3.48l-12.181,12.181c-8.701,8.701 -8.701,20.882 0,29.582l17.401,17.401c8.701,6.96 22.621,6.96 29.582,0l12.181,-12.181c0,0 1.74,0 3.48,0c6.96,3.48 13.921,6.96 20.882,8.701l0,17.401c0,12.181 10.441,20.882 20.882,20.882l22.621,0c10.441,0 19.141,-8.701 19.141,-20.882l0,-15.659c0,-1.74 0,-3.48 1.74,-3.48c5.22,-1.74 12.181,-3.48 17.401,-6.96c1.74,-1.74 1.74,-1.74 3.48,0l12.181,12.181c8.701,6.96 22.621,6.96 29.582,0l17.401,-17.401c8.701,-8.701 8.701,-20.882 0,-29.582l-12.181,-12.181c0,-1.74 0,-1.74 0,-3.48c1.74,-5.22 5.22,-10.441 6.96,-17.401c1.74,0 1.74,-1.74 3.48,-1.74l15.661,0c12.181,0 20.882,-10.441 20.882,-20.882l0,-22.624c0.003,-12.181 -10.438,-20.881 -20.878,-20.881zm5.22,43.503c0,1.74 -1.74,3.48 -3.48,3.48l-15.661,0c-8.701,0 -15.661,5.22 -19.141,13.921c-1.74,5.22 -5.22,10.441 -6.96,15.661c-3.48,8.701 -3.48,17.401 3.48,24.362l12.181,12.181c1.74,0 1.74,1.74 0,3.48l-17.401,17.401c0,1.74 -1.74,1.74 -3.48,0l-12.181,-12.181c-6.96,-6.96 -15.661,-6.96 -24.362,-3.48c-5.22,3.48 -10.441,5.22 -15.661,6.96c-8.701,1.74 -13.921,10.441 -13.921,19.141l0,15.661c0,1.74 -1.74,3.48 -3.48,3.48l-22.621,0c-1.74,0 -3.48,-1.74 -3.48,-3.48l0,-24.362c0,-3.48 -3.48,-6.96 -6.96,-8.701c-6.96,-1.74 -15.661,-5.22 -22.621,-8.701c-3.48,-1.74 -6.96,-1.74 -10.441,-1.74c-5.22,0 -10.441,1.74 -13.921,5.22l-12.181,12.181c0,1.74 -1.74,1.74 -3.48,0l-17.401,-17.401c-1.74,0 -1.74,-1.74 0,-3.48l12.181,-12.181c6.96,-6.96 6.96,-15.661 3.48,-24.362c-3.48,-5.22 -5.22,-10.441 -6.96,-15.661c-1.74,-8.701 -10.441,-13.921 -19.141,-13.921l-15.664,0c-1.74,0 -3.48,-1.74 -3.48,-3.48l0,-22.62c0,-1.74 1.74,-3.48 3.48,-3.48l15.661,0c8.701,0 15.661,-5.22 19.141,-13.921c1.74,-5.22 5.22,-10.441 6.96,-15.661c3.48,-8.701 3.48,-17.401 -3.48,-24.362l-12.181,-12.181c-1.74,0 -1.74,-1.74 0,-3.48l17.401,-17.401c0,-1.74 1.74,-1.74 3.48,0l12.181,12.181c6.96,6.96 15.661,6.96 24.362,3.48c5.22,-3.48 10.441,-5.22 15.661,-6.96c8.701,-1.74 13.921,-10.441 13.921,-19.141l0,-15.662c0,-1.74 1.74,-3.48 3.48,-3.48l22.621,0c1.74,0 3.48,1.74 3.48,3.48l0,15.661c0,8.701 5.22,15.661 13.921,19.141c5.22,1.74 10.441,5.22 15.661,6.96c8.701,3.48 17.401,1.74 24.362,-3.48l12.181,-12.181c0,-1.74 1.74,-1.74 3.48,0l17.401,17.401c1.74,0 1.74,1.74 0,3.48l-12.181,12.181c-6.96,6.96 -6.96,15.661 -3.48,24.362c3.48,5.22 5.22,10.441 6.96,15.661c1.74,8.701 10.441,13.921 19.141,13.921l15.661,0c1.74,0 3.48,1.74 3.48,3.48l0,22.623l0.002,0z"/>
    </g>
   </g>
  </g>
 </g>
</svg>