<svg width="14.999999999999998" height="14.999999999999998" xmlns="http://www.w3.org/2000/svg" xmlns:xlink="http://www.w3.org/1999/xlink">
 <!-- Created with Method Draw - http://github.com/duopixel/Method-Draw/ -->

 <g>
  <title>background</title>
  <rect fill="none" id="canvas_background" height="17" width="17" y="-1" x="-1"/>
  <g display="none" overflow="visible" y="0" x="0" height="100%" width="100%" id="canvasGrid">
   <rect fill="url(#gridpattern)" stroke-width="0" y="1" x="1" height="600" width="800"/>
  </g>
 </g>
 <g>
  <title>Layer 1</title>
  <defs>
   <linearGradient y2="0.70602" x2="1.02451" y1="0.45671" x1="0.38688" id="svg_14">
    <stop stop-color="#767676" offset="0"/>
    <stop offset="1"/>
   </linearGradient>
   <linearGradient y2="0.80706" x2="0.93487" y1="0.17866" x1="0.11553" id="svg_13">
    <stop stop-color="#0079b9" offset="0"/>
    <stop offset="1"/>
   </linearGradient>
   <linearGradient xlink:href="#svg_13" gradientTransform="matrix(60.003, 42.015, 34.184, -48.82, 10343.005, -10469.084)" y2="-243.455" x2="-33.224" y1="-243.423" x1="-33.282" id="svg_12"/>
   <linearGradient y2="0.5" x2="0.9994" y1="0.5" x1="0" id="svg_11">
    <stop stop-color="#595959" offset="0"/>
    <stop stop-color="#6e6e6e" offset="0.087"/>
    <stop stop-color="#8c8c8c" offset="0.242"/>
    <stop stop-color="#a4a4a4" offset="0.405"/>
    <stop stop-color="#b5b5b5" offset="0.577"/>
    <stop stop-color="#bfbfbf" offset="0.765"/>
    <stop stop-color="#c2c2c2" offset="1"/>
   </linearGradient>
   <linearGradient xlink:href="#svg_11" y2="26.171" x2="19.946" y1="26.171" x1="18.291" id="svg_10"/>
   <linearGradient xlink:href="#svg_11" y2="26.171" x2="26.096" y1="26.171" x1="24.44" id="svg_9"/>
  </defs>
  <g stroke="null" id="svg_40">
   <polygon stroke="null" id="svg_16" fill="#1c0a42" points="9.75678338855505,8.633041381835938 13.392742060124874,11.10708236694336 10.507312677800655,12.780567169189453 6.869233511388302,10.334831237792969 9.75678338855505,8.633041381835938 "/>
   <path stroke="null" id="svg_17" d="m10.50519,12.84915l-0.02917,-0.01959l-3.71552,-2.49799l2.99841,-1.76709l3.74257,2.54697l-2.99629,1.73771zm-3.52723,-2.5105l3.53147,2.3739l2.77457,-1.60927l-3.52988,-2.40057l-2.77616,1.63594z"/>
   <polygon stroke="null" id="svg_18" fill="url(#svg_14)" points="12.990162752568722,5.38783597946167 14.590406320989132,6.303762912750244 13.345004938542843,7.117922306060791 11.829625986516476,6.116007328033447 12.990162752568722,5.38783597946167 "/>
   <path stroke="null" id="svg_19" d="m13.34448,7.18704l-1.62199,-1.07212l1.26609,-0.79457l1.71216,0.9796l-1.35626,0.88708zm-1.40771,-1.06994l1.40824,0.93117l1.13402,-0.74014l-1.48515,-0.85171l-1.05711,0.66069z"/>
   <polygon stroke="null" id="svg_20" fill="#ffbd3f" points="6.676694296300411,8.597667694091797 10.313181780278683,11.07225227355957 7.42775335162878,12.74574089050293 3.789674900472164,10.300000190734863 6.676694296300411,8.597667694091797 "/>
   <path stroke="null" id="svg_21" d="m7.42563,12.81377l-0.02917,-0.01959l-3.71552,-2.49744l2.99682,-1.76764l3.74257,2.54697l-2.99469,1.73771zm-3.52723,-2.5105l3.53147,2.37227l2.77457,-1.60927l-3.52935,-2.40166l-2.7767,1.63866z"/>
   <polygon stroke="null" id="svg_22" fill="#a11f40" points="3.224786899983883,8.684198379516602 6.918561361730099,11.07878303527832 4.06654729694128,12.786552429199219 0.1632620021700859,10.253198623657227 3.224786899983883,8.684198379516602 "/>
   <path stroke="null" id="svg_23" d="m4.06549,12.85459l-4.01785,-2.60738l3.18246,-1.63267l3.79986,2.4637l-2.96446,1.77635zm-3.7866,-2.5954l3.78925,2.4588l2.74116,-1.64138l-3.58769,-2.32547l-2.94271,1.50804z"/>
   <polygon stroke="null" id="svg_24" fill="url(#svg_13)" points="0.10650839656591415,10.34680461883545 3.9954728111624718,12.792542457580566 3.9954728111624718,14.723441123962402 0.10650839656591415,12.148730278015137 0.10650839656591415,10.34680461883545 "/>
   <path stroke="null" id="svg_25" d="m4.05223,14.83067l-4.00459,-2.64983l0,-1.93853l4.00459,2.51758l0,2.07077zm-3.88896,-2.7135l3.77546,2.49908l0,-1.79104l-3.77546,-2.3739l0,1.66587z"/>
   <polygon stroke="null" id="svg_26" fill="url(#svg_12)" points="11.754306696355343,6.168252468109131 13.312650583684444,7.190847873687744 13.312650583684444,10.950892448425293 11.754306696355343,9.92557430267334 11.754306696355343,6.168252468109131 "/>
   <path stroke="null" id="svg_27" d="m13.34129,11.00423l-1.6151,-1.06287l0,-3.82644l1.6151,1.0596l0,3.8297zm-1.55834,-1.09498l1.50159,0.98777l0,-3.69038l-1.50159,-0.98505l0,3.68766z"/>
   <polygon stroke="null" id="svg_28" fill="#fff" points="13.386906526982784,11.165861129760742 13.386906526982784,7.1756110191345215 14.64132585376501,6.403357028961182 14.64132585376501,14.770244598388672 14.013852022588253,14.770244598388672 4.103145979344845,14.770244598388672 4.103145979344845,12.839344024658203 6.988576792180538,11.165861129760742 7.359331510961056,12.839344024658203 7.365166567265987,12.839344024658203 10.375772379338741,11.165861129760742 10.598015688359737,12.839344024658203 10.626655481755733,12.839344024658203 13.386906526982784,11.165861129760742 "/>
   <path stroke="null" id="svg_29" d="m14.69808,14.82849l-10.65169,0l0,-2.02342l2.9809,-1.729l0.37129,1.67784l3.02334,-1.68002l0.22383,1.68709l2.6844,-1.62777l0,-3.99079l1.36846,-0.84246l-0.00053,8.52853zm-10.53818,-0.11701l10.42467,0l0,-8.20526l-1.14091,0.70205l0,3.99025l-0.02811,0.01687l-2.77351,1.68165l-0.09229,0l-0.218,-1.64029l-2.9512,1.64029l-0.0663,0l-0.36386,-1.64247l-2.78996,1.61798l-0.00053,1.83893z"/>
   <rect stroke="null" transform="matrix(0.5304098119962171,0,0,0.5442237768560152,2.982539693312115,12.598448229668367) " id="svg_30" fill="url(#svg_11)" ry="0.215" rx="0.215" height="1.656" width="1.656" y="0.28166" x="4.82272"/>
   <path stroke="null" id="svg_31" d="m6.30647,13.70957l-0.6524,0a0.17079,0.17524 0 0 1 -0.17079,-0.17524l0,-0.66559a0.17079,0.17524 0 0 1 0.17079,-0.17524l0.6524,0a0.17079,0.17524 0 0 1 0.17079,0.17524l0,0.66722a0.17079,0.17524 0 0 1 -0.17079,0.17361zm-0.6524,-0.8996a0.05728,0.05878 0 0 0 -0.05675,0.05823l0,0.66722a0.05728,0.05878 0 0 0 0.05675,0.05823l0.6524,0a0.05728,0.05878 0 0 0 0.05675,-0.05823l0,-0.66667a0.05728,0.05878 0 0 0 -0.05675,-0.05823l-0.6524,-0.00054z"/>
   <rect stroke="null" transform="matrix(0.5304098119962171,0,0,0.5442237768560152,2.982539693312115,12.598448229668367) " id="svg_32" fill="url(#svg_10)" ry="0.215" rx="0.215" height="1.656" width="1.656" y="0.18466" x="10.75772"/>
   <path stroke="null" id="svg_33" d="m9.45286,13.65841l-0.65081,0a0.17079,0.17524 0 0 1 -0.17079,-0.17524l0,-0.66722a0.17079,0.17524 0 0 1 0.17079,-0.17524l0.65028,0a0.17079,0.17524 0 0 1 0.17079,0.17524l0,0.66722a0.17079,0.17524 0 0 1 -0.17026,0.17524zm-0.65028,-0.90123a0.05728,0.05878 0 0 0 -0.05675,0.05823l0,0.66722a0.05728,0.05878 0 0 0 0.05675,0.05823l0.65028,0a0.05728,0.05878 0 0 0 0.05675,-0.05823l0,-0.66667a0.05728,0.05878 0 0 0 -0.05675,-0.05823l-0.65028,-0.00054z"/>
   <rect stroke="null" transform="matrix(0.5304098119962171,0,0,0.5442237768560152,2.982539693312115,12.598448229668367) " id="svg_34" fill="url(#svg_9)" ry="0.215" rx="0.215" height="1.656" width="1.656" y="0.18466" x="16.90672"/>
   <path stroke="null" id="svg_35" d="m12.71435,13.65841l-0.65028,0a0.17079,0.17524 0 0 1 -0.17079,-0.17524l0,-0.66722a0.17079,0.17524 0 0 1 0.17079,-0.17524l0.65028,0a0.17079,0.17524 0 0 1 0.17079,0.17524l0,0.66722a0.17079,0.17524 0 0 1 -0.17079,0.17524zm-0.65028,-0.90123a0.05728,0.05878 0 0 0 -0.05675,0.05823l0,0.66722a0.05728,0.05878 0 0 0 0.05675,0.05823l0.65028,0a0.05728,0.05878 0 0 0 0.05675,-0.05823l0,-0.66667a0.05728,0.05878 0 0 0 -0.05675,-0.05823l-0.65028,-0.00054z"/>
   <path stroke="null" id="svg_36" fill="#ea2d2e" d="m13.42192,5.01831c-0.02758,0.03755 -0.22118,-0.14259 -0.34636,-0.28626a2.33805,2.39894 0 0 1 -0.27369,-0.39728a1.37907,1.41498 0 0 1 -0.18352,-0.42123a1.25071,1.28328 0 0 1 -0.02758,-0.37116a1.56948,1.61036 0 0 1 0.06842,-0.40762a1.66655,1.70995 0 0 1 0.41743,-0.65688a8.23833,8.45288 0 0 0 0.68052,-0.76191a1.62411,1.66641 0 0 0 0.25407,-0.5045a2.1105,2.16547 0 0 0 0.08009,-0.46531c0.01008,-0.1981 -0.01326,-0.32272 0.0122,-0.33361s0.11404,0.14912 0.15223,0.30694a1.67981,1.72356 0 0 1 -0.24293,1.14287a3.65983,3.75514 0 0 1 -0.58027,0.78804a1.48515,1.52383 0 0 0 -0.45032,0.67157a1.30799,1.34206 0 0 0 -0.04562,0.37388a1.83787,1.88574 0 0 0 0.25248,0.83919c0.15276,0.3113 0.2546,0.45334 0.23285,0.48327z"/>
   <path stroke="null" id="svg_37" d="m13.41025,5.0379c-0.06577,0 -0.26096,-0.19864 -0.3453,-0.29606a2.37518,2.43703 0 0 1 -0.27581,-0.39946a1.39392,1.43022 0 0 1 -0.18352,-0.42504a1.25972,1.29253 0 0 1 -0.02811,-0.37551a1.57956,1.6207 0 0 1 0.06895,-0.41143a1.70155,1.74587 0 0 1 0.42061,-0.66178c0.15594,-0.18014 0.2652,-0.28735 0.34954,-0.37334a2.33009,2.39078 0 0 0 0.32991,-0.38694a1.61881,1.66097 0 0 0 0.25248,-0.50014a2.09565,2.15023 0 0 0 0.07956,-0.46205c0.00424,-0.08653 0,-0.16 0,-0.21388c0,-0.08653 -0.00318,-0.12245 0.02016,-0.13225a0.02652,0.02721 0 0 1 0.02281,0a0.65028,0.66722 0 0 1 0.14851,0.31511a1.67981,1.72356 0 0 1 -0.24399,1.1543a3.67468,3.77038 0 0 1 -0.58345,0.79076c-0.02917,0.03265 -0.05781,0.06313 -0.08593,0.09306a1.21994,1.25171 0 0 0 -0.36121,0.57252a1.31011,1.34423 0 0 0 -0.04349,0.36626a1.83416,1.88193 0 0 0 0.25088,0.83266c0.06047,0.12572 0.11404,0.22585 0.15329,0.29878c0.06842,0.12789 0.09441,0.17578 0.07532,0.20082l0,0a0.02705,0.02776 0 0 1 -0.02122,0.01088l0,0.00272zm0.69961,-4.6074a0.45774,0.46967 0 0 0 0,0.1034c0,0.05442 0.00371,0.12844 0,0.21769a2.13278,2.18832 0 0 1 -0.08062,0.46858a1.64745,1.69036 0 0 1 -0.25619,0.50831a2.35343,2.41472 0 0 1 -0.33363,0.3913c-0.08593,0.08599 -0.19307,0.19266 -0.34848,0.3717a1.68034,1.7241 0 0 0 -0.41478,0.65307a1.55569,1.59621 0 0 0 -0.06789,0.40436a1.2332,1.26532 0 0 0 0.02758,0.36735a1.37376,1.40954 0 0 0 0.18087,0.41742a2.34547,2.40656 0 0 0 0.2721,0.39456a1.07938,1.1075 0 0 0 0.32408,0.28626a0.62747,0.64382 0 0 0 -0.07797,-0.16871c-0.03925,-0.07293 -0.09282,-0.17306 -0.15382,-0.29987a1.85643,1.90478 0 0 1 -0.25619,-0.85008a1.34194,1.37689 0 0 1 0.04455,-0.37443a1.25972,1.29253 0 0 1 0.3681,-0.58504c0.02758,-0.02993 0.05622,-0.06041 0.0854,-0.09306a3.64869,3.74372 0 0 0 0.57815,-0.78477a1.65435,1.69743 0 0 0 0.24187,-1.13362a0.67945,0.69715 0 0 0 -0.13313,-0.29443z"/>
   <path stroke="null" id="svg_38" fill="#ea2d2e" d="m14.88426,2.21937c-0.01008,-0.04789 -0.22914,-0.02177 -0.40629,0.03973a1.37907,1.41498 0 0 0 -0.5617,0.39293a1.48515,1.52383 0 0 0 -0.48586,1.00954a1.57638,1.61743 0 0 0 0.13685,0.57688c0.11722,0.3113 0.24134,0.42068 0.2355,0.66667c-0.00371,0.16327 -0.06047,0.2634 -0.02546,0.29878s0.16655,-0.05442 0.24505,-0.17034a0.95474,0.9796 0 0 0 0.13738,-0.5562c-0.0244,-0.44354 -0.31825,-0.55239 -0.32249,-0.9796a0.9855,1.01117 0 0 1 0.06842,-0.3679c0.23497,-0.68082 0.9977,-0.82069 0.97861,-0.91049z"/>
   <path stroke="null" id="svg_39" d="m13.80328,5.22893a0.04986,0.05116 0 0 1 -0.0366,-0.01415c-0.0244,-0.02503 -0.01591,-0.0664 -0.00265,-0.12898a0.91124,0.93498 0 0 0 0.02387,-0.18014a0.72878,0.74776 0 0 0 -0.11351,-0.39184a2.65205,2.72112 0 0 1 -0.12093,-0.26939a1.58062,1.62179 0 0 1 -0.13738,-0.58232a1.49045,1.52927 0 0 1 0.48957,-1.01988a1.40028,1.43675 0 0 1 0.56754,-0.39674a0.78607,0.80654 0 0 1 0.40629,-0.05442a0.03448,0.03537 0 0 1 0.01963,0.02503l0,0c0.00796,0.0381 -0.0488,0.06585 -0.16231,0.12191a1.44802,1.48573 0 0 0 -0.81789,0.7962a0.96906,0.9943 0 0 0 -0.06736,0.363a0.87252,0.89525 0 0 0 0.15435,0.48164a1.00194,1.02804 0 0 1 0.16814,0.49742a0.96216,0.98722 0 0 1 -0.14003,0.56545a0.4291,0.44028 0 0 1 -0.2233,0.18612l-0.00743,0.00109zm1.00194,-3.0199a1.12288,1.15212 0 0 0 -0.32249,0.06367a1.3727,1.40845 0 0 0 -0.55587,0.38912a1.46605,1.50423 0 0 0 -0.48214,0.99974a1.55675,1.5973 0 0 0 0.13578,0.57143a2.62818,2.69663 0 0 0 0.11934,0.26667a0.76008,0.77987 0 0 1 0.11669,0.40545a0.93617,0.96055 0 0 1 -0.02493,0.18558c-0.01008,0.04952 -0.01856,0.08871 -0.00477,0.10231a0.0244,0.02503 0 0 0 0.02016,0.00544a0.40789,0.41851 0 0 0 0.20262,-0.17415a0.95102,0.97579 0 0 0 0.13472,-0.54694a0.97808,1.00355 0 0 0 -0.16443,-0.48436a0.90753,0.93117 0 0 1 -0.15912,-0.49579a0.99558,1.02151 0 0 1 0.06895,-0.37334a1.47242,1.51077 0 0 1 0.83433,-0.81198c0.06683,-0.0332 0.15011,-0.07401 0.14692,-0.08925l-0.00424,-0.00381a0.14003,0.14368 0 0 0 -0.06153,-0.0098z"/>
  </g>
  <g stroke="null" id="svg_48">
   <g stroke="null" transform="matrix(0.020670246666347494,0,0,0.020670246666347494,-253.65082813912306,-193.96995814662742) " id="svg_44">
    <g stroke="null" id="svg_45">
     <path stroke="null" id="svg_46" d="m12446.23948,9525.34277c-24.362,0 -43.503,19.141 -43.503,43.503s19.141,43.503 43.503,43.503s43.503,-19.141 43.503,-43.503s-19.141,-43.503 -43.503,-43.503zm0,69.605c-13.921,0 -26.102,-12.181 -26.102,-26.102c0,-13.921 12.181,-26.102 26.102,-26.102c13.921,0 26.102,12.181 26.102,26.102c0,13.921 -12.181,26.102 -26.102,26.102z"/>
     <path stroke="null" id="svg_47" d="m12573.26848,9535.78377l-15.661,0c-1.74,0 -3.48,0 -3.48,-1.74c-1.74,-5.22 -3.48,-12.181 -6.96,-17.401c0,0 -1.74,-1.74 0,-3.48l12.181,-12.181c8.701,-8.701 8.701,-20.882 0,-29.582l-17.401,-17.401c-8.701,-6.96 -22.621,-6.96 -29.582,0l-12.181,12.181c0,0 -1.74,0 -3.48,0c-5.22,-1.74 -12.181,-5.22 -17.401,-6.96c0,-1.74 -1.74,-1.74 -1.74,-3.48l0,-15.663c-0.003,-12.181 -10.443,-20.882 -20.884,-20.882l-22.622,0c-12.181,0 -20.882,10.441 -20.882,20.882l0,15.661c0,1.74 0,3.48 -1.74,3.48c-5.22,1.74 -12.181,3.48 -17.401,6.96c-1.74,1.74 -1.74,1.74 -3.48,0l-12.181,-12.181c-8.701,-6.96 -22.621,-6.96 -29.582,0l-17.402,17.402c-8.701,8.701 -8.701,20.882 0,29.582l12.181,12.181c0,1.74 0,1.74 0,3.48c-1.74,5.22 -5.22,10.441 -6.96,17.401c-1.74,0 -1.74,1.74 -3.48,1.74l-15.661,0c-12.181,0.001 -20.882,10.442 -20.882,20.882l0,22.621c0,12.181 10.441,20.882 20.882,20.882l15.661,0c1.74,0 3.48,0 3.48,1.74c1.74,5.22 3.48,12.181 6.96,17.401c0,0 1.74,1.74 0,3.48l-12.181,12.181c-8.701,8.701 -8.701,20.882 0,29.582l17.401,17.401c8.701,6.96 22.621,6.96 29.582,0l12.181,-12.181c0,0 1.74,0 3.48,0c6.96,3.48 13.921,6.96 20.882,8.701l0,17.401c0,12.181 10.441,20.882 20.882,20.882l22.621,0c10.441,0 19.141,-8.701 19.141,-20.882l0,-15.659c0,-1.74 0,-3.48 1.74,-3.48c5.22,-1.74 12.181,-3.48 17.401,-6.96c1.74,-1.74 1.74,-1.74 3.48,0l12.181,12.181c8.701,6.96 22.621,6.96 29.582,0l17.401,-17.401c8.701,-8.701 8.701,-20.882 0,-29.582l-12.181,-12.181c0,-1.74 0,-1.74 0,-3.48c1.74,-5.22 5.22,-10.441 6.96,-17.401c1.74,0 1.74,-1.74 3.48,-1.74l15.661,0c12.181,0 20.882,-10.441 20.882,-20.882l0,-22.624c0.003,-12.181 -10.438,-20.881 -20.878,-20.881zm5.22,43.503c0,1.74 -1.74,3.48 -3.48,3.48l-15.661,0c-8.701,0 -15.661,5.22 -19.141,13.921c-1.74,5.22 -5.22,10.441 -6.96,15.661c-3.48,8.701 -3.48,17.401 3.48,24.362l12.181,12.181c1.74,0 1.74,1.74 0,3.48l-17.401,17.401c0,1.74 -1.74,1.74 -3.48,0l-12.181,-12.181c-6.96,-6.96 -15.661,-6.96 -24.362,-3.48c-5.22,3.48 -10.441,5.22 -15.661,6.96c-8.701,1.74 -13.921,10.441 -13.921,19.141l0,15.661c0,1.74 -1.74,3.48 -3.48,3.48l-22.621,0c-1.74,0 -3.48,-1.74 -3.48,-3.48l0,-24.362c0,-3.48 -3.48,-6.96 -6.96,-8.701c-6.96,-1.74 -15.661,-5.22 -22.621,-8.701c-3.48,-1.74 -6.96,-1.74 -10.441,-1.74c-5.22,0 -10.441,1.74 -13.921,5.22l-12.181,12.181c0,1.74 -1.74,1.74 -3.48,0l-17.401,-17.401c-1.74,0 -1.74,-1.74 0,-3.48l12.181,-12.181c6.96,-6.96 6.96,-15.661 3.48,-24.362c-3.48,-5.22 -5.22,-10.441 -6.96,-15.661c-1.74,-8.701 -10.441,-13.921 -19.141,-13.921l-15.664,0c-1.74,0 -3.48,-1.74 -3.48,-3.48l0,-22.62c0,-1.74 1.74,-3.48 3.48,-3.48l15.661,0c8.701,0 15.661,-5.22 19.141,-13.921c1.74,-5.22 5.22,-10.441 6.96,-15.661c3.48,-8.701 3.48,-17.401 -3.48,-24.362l-12.181,-12.181c-1.74,0 -1.74,-1.74 0,-3.48l17.401,-17.401c0,-1.74 1.74,-1.74 3.48,0l12.181,12.181c6.96,6.96 15.661,6.96 24.362,3.48c5.22,-3.48 10.441,-5.22 15.661,-6.96c8.701,-1.74 13.921,-10.441 13.921,-19.141l0,-15.662c0,-1.74 1.74,-3.48 3.48,-3.48l22.621,0c1.74,0 3.48,1.74 3.48,3.48l0,15.661c0,8.701 5.22,15.661 13.921,19.141c5.22,1.74 10.441,5.22 15.661,6.96c8.701,3.48 17.401,1.74 24.362,-3.48l12.181,-12.181c0,-1.74 1.74,-1.74 3.48,0l17.401,17.401c1.74,0 1.74,1.74 0,3.48l-12.181,12.181c-6.96,6.96 -6.96,15.661 -3.48,24.362c3.48,5.22 5.22,10.441 6.96,15.661c1.74,8.701 10.441,13.921 19.141,13.921l15.661,0c1.74,0 3.48,1.74 3.48,3.48l0,22.623l0.002,0z"/>
    </g>
   </g>
  </g>
 </g>
</svg>